<?xml version="1.0" standalone="no"?>
<!DOCTYPE svg PUBLIC "-//W3C//DTD SVG 20010904//EN"
 "http://www.w3.org/TR/2001/REC-SVG-20010904/DTD/svg10.dtd">
<svg version="1.0" xmlns="http://www.w3.org/2000/svg"
 width="512.000000pt" height="512.000000pt" viewBox="0 0 512.000000 512.000000"
 preserveAspectRatio="xMidYMid meet">
<metadata>
Created by potrace 1.14, written by Peter Selinger 2001-2017
</metadata>
<g transform="translate(0.000000,512.000000) scale(0.100000,-0.100000)"
fill="#000000" stroke="none">
<path d="M2325 5114 c-16 -2 -80 -11 -142 -20 -422 -57 -875 -255 -1228 -534
-103 -81 -314 -292 -395 -395 -227 -286 -405 -649 -490 -997 -55 -223 -65
-319 -65 -608 0 -289 10 -385 65 -608 85 -348 263 -711 490 -997 81 -103 292
-314 395 -395 286 -227 649 -405 997 -490 223 -55 319 -65 608 -65 289 0 385
10 608 65 348 85 711 263 997 490 103 81 314 292 395 395 227 286 405 649 490
997 55 223 65 319 65 608 0 289 -10 385 -65 608 -85 348 -263 711 -490 997
-81 103 -292 314 -395 395 -349 276 -777 464 -1220 536 -95 15 -545 28 -620
18z m-937 -1867 c87 -30 168 -77 230 -133 l46 -41 38 36 c72 70 213 141 319
161 123 23 270 3 389 -53 85 -41 184 -139 227 -227 66 -132 67 -136 71 -662
l3 -478 -155 0 -156 0 0 423 c0 279 -4 443 -11 481 -34 164 -169 260 -344 242
-120 -12 -211 -82 -258 -198 -21 -51 -22 -69 -25 -500 l-3 -448 -154 0 -154 0
-3 458 c-4 513 -3 510 -78 595 -57 64 -124 91 -230 91 -155 1 -252 -65 -305
-209 -17 -45 -19 -91 -23 -492 l-3 -443 -155 0 -154 0 0 705 0 705 156 0 156
0 -7 -57 -7 -56 34 22 c59 40 154 81 219 96 96 22 245 14 337 -18z m1777 -82
c45 -121 315 -853 327 -887 6 -16 13 -28 17 -28 8 0 49 108 241 635 50 138
101 277 113 310 l23 60 167 3 167 2 -9 -22 c-5 -13 -109 -277 -231 -588 -122
-311 -242 -618 -267 -683 l-46 -117 -160 2 -160 3 -112 285 c-328 833 -423
1077 -429 1098 l-8 22 167 -2 167 -3 33 -90z m1342 -956 c35 -13 80 -55 100
-93 19 -36 21 -133 3 -166 -37 -72 -99 -111 -175 -111 -29 0 -66 6 -82 14 -63
33 -113 113 -113 179 1 67 54 146 118 174 34 16 112 17 149 3z"/>
</g>
</svg>
